<mxfile host="app.diagrams.net" modified="2021-05-30T20:42:22.694Z" agent="5.0 (X11)" etag="H3vVY4kPDvAe-Z3GOwdq" version="14.7.3" type="github">
  <diagram id="o-eNBIKeLZyZqa3y3T_n" name="Firmware Decomposition">
    <mxGraphModel dx="1278" dy="689" grid="1" gridSize="10" guides="1" tooltips="1" connect="1" arrows="1" fold="1" page="1" pageScale="1" pageWidth="850" pageHeight="1100" math="0" shadow="0">
      <root>
        <mxCell id="0" />
        <mxCell id="1" parent="0" />
        <mxCell id="muBZPksUXTMG00-fKc-G-5" value="HAL" style="swimlane;startSize=20;" parent="1" vertex="1">
          <mxGeometry x="570" y="430" width="220" height="90" as="geometry">
            <mxRectangle x="270" y="310" width="60" height="20" as="alternateBounds" />
          </mxGeometry>
        </mxCell>
        <mxCell id="muBZPksUXTMG00-fKc-G-4" value="S.I.M." style="rounded=0;whiteSpace=wrap;html=1;" parent="muBZPksUXTMG00-fKc-G-5" vertex="1">
          <mxGeometry x="10" y="40" width="70" height="40" as="geometry" />
        </mxCell>
        <mxCell id="muBZPksUXTMG00-fKc-G-8" value="Arduino support" style="rounded=0;whiteSpace=wrap;html=1;" parent="muBZPksUXTMG00-fKc-G-5" vertex="1">
          <mxGeometry x="140" y="40" width="70" height="40" as="geometry" />
        </mxCell>
        <mxCell id="muBZPksUXTMG00-fKc-G-27" style="edgeStyle=orthogonalEdgeStyle;rounded=0;orthogonalLoop=1;jettySize=auto;html=1;entryX=0.5;entryY=0;entryDx=0;entryDy=0;" parent="1" source="muBZPksUXTMG00-fKc-G-10" target="muBZPksUXTMG00-fKc-G-5" edge="1">
          <mxGeometry relative="1" as="geometry">
            <mxPoint x="735" y="430" as="targetPoint" />
          </mxGeometry>
        </mxCell>
        <mxCell id="muBZPksUXTMG00-fKc-G-10" value="&lt;div&gt;Sensors&lt;/div&gt;" style="rounded=0;whiteSpace=wrap;html=1;" parent="1" vertex="1">
          <mxGeometry x="620" y="330" width="120" height="50" as="geometry" />
        </mxCell>
        <mxCell id="muBZPksUXTMG00-fKc-G-26" style="edgeStyle=orthogonalEdgeStyle;rounded=0;orthogonalLoop=1;jettySize=auto;html=1;entryX=0.5;entryY=0;entryDx=0;entryDy=0;" parent="1" source="muBZPksUXTMG00-fKc-G-11" target="muBZPksUXTMG00-fKc-G-10" edge="1">
          <mxGeometry relative="1" as="geometry" />
        </mxCell>
        <mxCell id="muBZPksUXTMG00-fKc-G-11" value="&lt;div&gt;Calculation (physical state estimation)&lt;br&gt;&lt;/div&gt;" style="rounded=0;whiteSpace=wrap;html=1;" parent="1" vertex="1">
          <mxGeometry x="620" y="230" width="120" height="50" as="geometry" />
        </mxCell>
        <mxCell id="muBZPksUXTMG00-fKc-G-25" style="edgeStyle=orthogonalEdgeStyle;rounded=0;orthogonalLoop=1;jettySize=auto;html=1;entryX=0.5;entryY=0;entryDx=0;entryDy=0;" parent="1" source="muBZPksUXTMG00-fKc-G-12" target="muBZPksUXTMG00-fKc-G-11" edge="1">
          <mxGeometry relative="1" as="geometry" />
        </mxCell>
        <mxCell id="muBZPksUXTMG00-fKc-G-12" value="State machine" style="rounded=0;whiteSpace=wrap;html=1;" parent="1" vertex="1">
          <mxGeometry x="620" y="130" width="120" height="50" as="geometry" />
        </mxCell>
        <mxCell id="muBZPksUXTMG00-fKc-G-32" style="edgeStyle=orthogonalEdgeStyle;rounded=0;orthogonalLoop=1;jettySize=auto;html=1;exitX=1;exitY=0.5;exitDx=0;exitDy=0;entryX=0;entryY=0.5;entryDx=0;entryDy=0;" parent="1" source="muBZPksUXTMG00-fKc-G-13" target="muBZPksUXTMG00-fKc-G-12" edge="1">
          <mxGeometry relative="1" as="geometry">
            <mxPoint x="610" y="160" as="targetPoint" />
          </mxGeometry>
        </mxCell>
        <mxCell id="muBZPksUXTMG00-fKc-G-33" style="edgeStyle=orthogonalEdgeStyle;rounded=0;orthogonalLoop=1;jettySize=auto;html=1;exitX=1;exitY=0.5;exitDx=0;exitDy=0;entryX=0;entryY=0.5;entryDx=0;entryDy=0;" parent="1" source="muBZPksUXTMG00-fKc-G-13" target="muBZPksUXTMG00-fKc-G-11" edge="1">
          <mxGeometry relative="1" as="geometry" />
        </mxCell>
        <mxCell id="muBZPksUXTMG00-fKc-G-34" style="edgeStyle=orthogonalEdgeStyle;rounded=0;orthogonalLoop=1;jettySize=auto;html=1;exitX=1;exitY=0.5;exitDx=0;exitDy=0;entryX=0;entryY=0.5;entryDx=0;entryDy=0;" parent="1" source="muBZPksUXTMG00-fKc-G-13" target="muBZPksUXTMG00-fKc-G-10" edge="1">
          <mxGeometry relative="1" as="geometry" />
        </mxCell>
        <mxCell id="muBZPksUXTMG00-fKc-G-13" value="High level control" style="swimlane;" parent="1" vertex="1">
          <mxGeometry x="100" y="185" width="355" height="140" as="geometry" />
        </mxCell>
        <mxCell id="muBZPksUXTMG00-fKc-G-15" value="Radio (RX)" style="rounded=0;whiteSpace=wrap;html=1;" parent="muBZPksUXTMG00-fKc-G-13" vertex="1">
          <mxGeometry x="158" y="40" width="85" height="40" as="geometry" />
        </mxCell>
        <mxCell id="muBZPksUXTMG00-fKc-G-16" value="Radio (TX)" style="rounded=0;whiteSpace=wrap;html=1;" parent="muBZPksUXTMG00-fKc-G-13" vertex="1">
          <mxGeometry x="255" y="40" width="85" height="40" as="geometry" />
        </mxCell>
        <mxCell id="muBZPksUXTMG00-fKc-G-17" value="Logging (to SD card)" style="rounded=0;whiteSpace=wrap;html=1;" parent="muBZPksUXTMG00-fKc-G-13" vertex="1">
          <mxGeometry x="15" y="90" width="125" height="40" as="geometry" />
        </mxCell>
        <mxCell id="muBZPksUXTMG00-fKc-G-22" value="Dynamic behaviour changes" style="rounded=0;whiteSpace=wrap;html=1;" parent="muBZPksUXTMG00-fKc-G-13" vertex="1">
          <mxGeometry x="15" y="40" width="125" height="40" as="geometry" />
        </mxCell>
        <mxCell id="muBZPksUXTMG00-fKc-G-35" value="&lt;div&gt;Arrows indicate dependency, e.g things should depend on HAL (not other way around)&lt;br&gt;&lt;/div&gt;" style="text;html=1;strokeColor=none;fillColor=none;align=center;verticalAlign=middle;whiteSpace=wrap;rounded=0;" parent="1" vertex="1">
          <mxGeometry x="130" y="100" width="210" height="20" as="geometry" />
        </mxCell>
        <mxCell id="muBZPksUXTMG00-fKc-G-36" value="In some cases, some lower levels are reliant on what&#39;s happening at a higher level, e.g. the sensors to be read from or the algorithm for calculations may be dependent on what state the system is in. Under this situation, instead of introducing a dependency, the high level control should swap out components accordingly." style="text;html=1;strokeColor=none;fillColor=none;align=center;verticalAlign=middle;whiteSpace=wrap;rounded=0;movable=1;resizable=1;rotatable=1;deletable=1;editable=1;connectable=1;" parent="1" vertex="1">
          <mxGeometry x="100" y="370" width="340" height="120" as="geometry" />
        </mxCell>
      </root>
    </mxGraphModel>
  </diagram>
</mxfile>
